<svg width="16" height="4" viewBox="0 0 16 4" fill="none" xmlns="http://www.w3.org/2000/svg">
<path d="M8.00001 2.83333C8.46025 2.83333 8.83334 2.46023 8.83334 2C8.83334 1.53976 8.46025 1.16666 8.00001 1.16666C7.53977 1.16666 7.16668 1.53976 7.16668 2C7.16668 2.46023 7.53977 2.83333 8.00001 2.83333Z" stroke-width="1.2" stroke-linecap="round" stroke-linejoin="round"/>
<path d="M13.8333 2.83333C14.2936 2.83333 14.6667 2.46023 14.6667 2C14.6667 1.53976 14.2936 1.16666 13.8333 1.16666C13.3731 1.16666 13 1.53976 13 2C13 2.46023 13.3731 2.83333 13.8333 2.83333Z" stroke-width="1.2" stroke-linecap="round" stroke-linejoin="round"/>
<path d="M2.16668 2.83333C2.62691 2.83333 3.00001 2.46023 3.00001 2C3.00001 1.53976 2.62691 1.16666 2.16668 1.16666C1.70644 1.16666 1.33334 1.53976 1.33334 2C1.33334 2.46023 1.70644 2.83333 2.16668 2.83333Z" stroke-width="1.2" stroke-linecap="round" stroke-linejoin="round"/>
</svg>
