<svg width="20" height="20" viewBox="0 0 20 20" fill="none" xmlns="http://www.w3.org/2000/svg">
<path d="M17.5 10.6C17.8314 10.6 18.1 10.3314 18.1 10C18.1 9.66865 17.8314 9.40002 17.5 9.40002V10.6ZM7.5 9.40002C7.16863 9.40002 6.9 9.66865 6.9 10C6.9 10.3314 7.16863 10.6 7.5 10.6V9.40002ZM17.5 5.60002C17.8314 5.60002 18.1 5.33139 18.1 5.00002C18.1 4.66865 17.8314 4.40002 17.5 4.40002V5.60002ZM7.5 4.40002C7.16863 4.40002 6.9 4.66865 6.9 5.00002C6.9 5.33139 7.16863 5.60002 7.5 5.60002V4.40002ZM17.5 15.6C17.8314 15.6 18.1 15.3314 18.1 15C18.1 14.6687 17.8314 14.4 17.5 14.4V15.6ZM7.5 14.4C7.16863 14.4 6.9 14.6686 6.9 15C6.9 15.3314 7.16863 15.6 7.5 15.6V14.4ZM17.5 9.40002L7.5 9.40002V10.6L17.5 10.6V9.40002ZM3.56667 10C3.56667 10.1289 3.4622 10.2334 3.33333 10.2334V11.4334C4.12494 11.4334 4.76667 10.7916 4.76667 10H3.56667ZM3.33333 10.2334C3.20447 10.2334 3.1 10.1289 3.1 10H1.9C1.9 10.7916 2.54173 11.4334 3.33333 11.4334V10.2334ZM3.1 10C3.1 9.87115 3.20447 9.76669 3.33333 9.76669V8.56669C2.54173 8.56669 1.9 9.20841 1.9 10H3.1ZM3.33333 9.76669C3.4622 9.76669 3.56667 9.87115 3.56667 10H4.76667C4.76667 9.20841 4.12494 8.56669 3.33333 8.56669V9.76669ZM17.5 4.40002L7.5 4.40002V5.60002L17.5 5.60002V4.40002ZM3.56667 5.00002C3.56667 5.12889 3.4622 5.23335 3.33333 5.23335V6.43335C4.12494 6.43335 4.76667 5.79163 4.76667 5.00002H3.56667ZM3.33333 5.23335C3.20447 5.23335 3.1 5.12889 3.1 5.00002H1.9C1.9 5.79163 2.54173 6.43335 3.33333 6.43335V5.23335ZM3.1 5.00002C3.1 4.87115 3.20447 4.76669 3.33333 4.76669V3.56669C2.54173 3.56669 1.9 4.20841 1.9 5.00002H3.1ZM3.33333 4.76669C3.4622 4.76669 3.56667 4.87115 3.56667 5.00002H4.76667C4.76667 4.20841 4.12494 3.56669 3.33333 3.56669V4.76669ZM17.5 14.4L7.5 14.4V15.6L17.5 15.6V14.4ZM3.56667 15C3.56667 15.1289 3.4622 15.2334 3.33333 15.2334V16.4334C4.12494 16.4334 4.76667 15.7916 4.76667 15H3.56667ZM3.33333 15.2334C3.20447 15.2334 3.1 15.1289 3.1 15H1.9C1.9 15.7916 2.54173 16.4334 3.33333 16.4334V15.2334ZM3.1 15C3.1 14.8712 3.20447 14.7667 3.33333 14.7667V13.5667C2.54173 13.5667 1.9 14.2084 1.9 15H3.1ZM3.33333 14.7667C3.4622 14.7667 3.56667 14.8712 3.56667 15H4.76667C4.76667 14.2084 4.12494 13.5667 3.33333 13.5667V14.7667Z" fill="#A8A8A8"/>
</svg>
