<svg width="16" height="16" viewBox="0 0 16 16" fill="none" xmlns="http://www.w3.org/2000/svg">
<path d="M14 7.26671C14.3314 7.26671 14.6 6.99808 14.6 6.66671C14.6 6.33534 14.3314 6.06671 14 6.06671V7.26671ZM2 6.06671C1.66863 6.06671 1.4 6.33534 1.4 6.66671C1.4 6.99808 1.66863 7.26671 2 7.26671V6.06671ZM3.09202 14.4487L2.81962 14.9833L3.09202 14.4487ZM2.21799 13.5747L1.68338 13.8471L2.21799 13.5747ZM13.782 13.5747L14.3166 13.8471L13.782 13.5747ZM12.908 14.4487L13.1804 14.9833L12.908 14.4487ZM12.908 2.88469L13.1804 2.35009L12.908 2.88469ZM13.782 3.75873L14.3166 3.48633L13.782 3.75873ZM3.09202 2.88469L2.81962 2.35009L3.09202 2.88469ZM2.21799 3.75873L1.68338 3.48633L2.21799 3.75873ZM11.2667 1.33337C11.2667 1.002 10.998 0.733374 10.6667 0.733374C10.3353 0.733374 10.0667 1.002 10.0667 1.33337H11.2667ZM10.0667 4.00004C10.0667 4.33141 10.3353 4.60004 10.6667 4.60004C10.998 4.60004 11.2667 4.33141 11.2667 4.00004H10.0667ZM5.93333 1.33337C5.93333 1.002 5.6647 0.733374 5.33333 0.733374C5.00196 0.733374 4.73333 1.002 4.73333 1.33337H5.93333ZM4.73333 4.00004C4.73333 4.33141 5.00196 4.60004 5.33333 4.60004C5.6647 4.60004 5.93333 4.33141 5.93333 4.00004H4.73333ZM14 6.06671H2V7.26671H14V6.06671ZM5.2 3.26671H10.8V2.06671H5.2V3.26671ZM13.4 5.86671V11.4667H14.6V5.86671H13.4ZM10.8 14.0667H5.2V15.2667H10.8V14.0667ZM2.6 11.4667V5.86671H1.4V11.4667H2.6ZM5.2 14.0667C4.63005 14.0667 4.23867 14.0662 3.93526 14.0415C3.63886 14.0172 3.47964 13.9728 3.36441 13.9141L2.81962 14.9833C3.13222 15.1426 3.46694 15.2072 3.83754 15.2375C4.20115 15.2672 4.64985 15.2667 5.2 15.2667V14.0667ZM1.4 11.4667C1.4 12.0169 1.39953 12.4656 1.42924 12.8292C1.45952 13.1998 1.52411 13.5345 1.68338 13.8471L2.75259 13.3023C2.69388 13.1871 2.64947 13.0278 2.62526 12.7314C2.60047 12.428 2.6 12.0367 2.6 11.4667H1.4ZM3.36441 13.9141C3.10099 13.7799 2.88681 13.5657 2.75259 13.3023L1.68338 13.8471C1.93265 14.3363 2.3304 14.7341 2.81962 14.9833L3.36441 13.9141ZM13.4 11.4667C13.4 12.0367 13.3995 12.428 13.3747 12.7314C13.3505 13.0278 13.3061 13.1871 13.2474 13.3023L14.3166 13.8471C14.4759 13.5345 14.5405 13.1998 14.5708 12.8292C14.6005 12.4656 14.6 12.0169 14.6 11.4667H13.4ZM10.8 15.2667C11.3502 15.2667 11.7989 15.2672 12.1625 15.2375C12.5331 15.2072 12.8678 15.1426 13.1804 14.9833L12.6356 13.9141C12.5204 13.9728 12.3611 14.0172 12.0647 14.0415C11.7613 14.0662 11.37 14.0667 10.8 14.0667V15.2667ZM13.2474 13.3023C13.1132 13.5657 12.899 13.7799 12.6356 13.9141L13.1804 14.9833C13.6696 14.7341 14.0673 14.3363 14.3166 13.8471L13.2474 13.3023ZM10.8 3.26671C11.37 3.26671 11.7613 3.26717 12.0647 3.29196C12.3611 3.31618 12.5204 3.36058 12.6356 3.4193L13.1804 2.35009C12.8678 2.19082 12.5331 2.12623 12.1625 2.09595C11.7989 2.06624 11.3502 2.06671 10.8 2.06671V3.26671ZM14.6 5.86671C14.6 5.31656 14.6005 4.86786 14.5708 4.50425C14.5405 4.13364 14.4759 3.79892 14.3166 3.48633L13.2474 4.03112C13.3061 4.14635 13.3505 4.30557 13.3747 4.60197C13.3995 4.90537 13.4 5.29675 13.4 5.86671H14.6ZM12.6356 3.4193C12.899 3.55352 13.1132 3.76769 13.2474 4.03112L14.3166 3.48633C14.0673 2.99711 13.6696 2.59936 13.1804 2.35009L12.6356 3.4193ZM5.2 2.06671C4.64985 2.06671 4.20115 2.06624 3.83754 2.09595C3.46694 2.12623 3.13222 2.19082 2.81962 2.35009L3.36441 3.4193C3.47964 3.36058 3.63886 3.31618 3.93526 3.29196C4.23867 3.26717 4.63005 3.26671 5.2 3.26671V2.06671ZM2.6 5.86671C2.6 5.29675 2.60047 4.90537 2.62526 4.60197C2.64947 4.30557 2.69388 4.14635 2.75259 4.03112L1.68338 3.48633C1.52411 3.79892 1.45952 4.13364 1.42924 4.50425C1.39953 4.86786 1.4 5.31656 1.4 5.86671H2.6ZM2.81962 2.35009C2.3304 2.59936 1.93265 2.99711 1.68338 3.48633L2.75259 4.03112C2.88681 3.76769 3.10099 3.55352 3.36441 3.4193L2.81962 2.35009ZM10.0667 1.33337V4.00004H11.2667V1.33337H10.0667ZM4.73333 1.33337V4.00004H5.93333V1.33337H4.73333Z" fill="#A8A8A8"/>
</svg>
